<svg width="614" height="91" viewBox="0 0 614 91" fill="none" xmlns="http://www.w3.org/2000/svg">
<g clip-path="url(#clip0_1_3)">
<rect width="614" height="91" fill="white"/>
<rect width="614" height="293" fill="#30A14E"/>
<mask id="path-2-outside-1_1_3" maskUnits="userSpaceOnUse" x="94" y="27" width="431" height="39" fill="black">
<rect fill="white" x="94" y="27" width="431" height="39"/>
<path d="M107.112 29.544C110.76 29.544 113.912 30.232 116.568 31.608C119.256 32.952 121.304 34.888 122.712 37.416C124.152 39.944 124.872 42.92 124.872 46.344C124.872 49.768 124.152 52.744 122.712 55.272C121.304 57.768 119.256 59.688 116.568 61.032C113.912 62.344 110.76 63 107.112 63H96.696V29.544H107.112ZM107.112 59.4C111.432 59.4 114.728 58.264 117 55.992C119.272 53.688 120.408 50.472 120.408 46.344C120.408 42.184 119.256 38.936 116.952 36.6C114.68 34.264 111.4 33.096 107.112 33.096H101.064V59.4H107.112ZM150.41 55.56H135.818L133.13 63H128.521L140.618 29.736H145.658L157.706 63H153.098L150.41 55.56ZM149.162 52.008L143.114 35.112L137.066 52.008H149.162ZM205.025 29.544L195.329 63H190.433L182.657 36.072L174.593 63L169.745 63.048L160.385 29.544H165.041L172.337 57.912L180.401 29.544H185.297L192.977 57.816L200.321 29.544H205.025ZM214.173 29.544V63H209.805V29.544H214.173ZM232.034 29.544C235.682 29.544 238.834 30.232 241.49 31.608C244.178 32.952 246.226 34.888 247.634 37.416C249.074 39.944 249.794 42.92 249.794 46.344C249.794 49.768 249.074 52.744 247.634 55.272C246.226 57.768 244.178 59.688 241.49 61.032C238.834 62.344 235.682 63 232.034 63H221.618V29.544H232.034ZM232.034 59.4C236.354 59.4 239.65 58.264 241.922 55.992C244.194 53.688 245.33 50.472 245.33 46.344C245.33 42.184 244.178 38.936 241.874 36.6C239.602 34.264 236.322 33.096 232.034 33.096H225.986V59.4H232.034ZM285.104 45.768C286.32 45.96 287.424 46.456 288.416 47.256C289.44 48.056 290.24 49.048 290.816 50.232C291.424 51.416 291.728 52.68 291.728 54.024C291.728 55.72 291.296 57.256 290.432 58.632C289.568 59.976 288.304 61.048 286.64 61.848C285.008 62.616 283.072 63 280.832 63H268.352V29.544H280.352C282.624 29.544 284.56 29.928 286.16 30.696C287.76 31.432 288.96 32.44 289.76 33.72C290.56 35 290.96 36.44 290.96 38.04C290.96 40.024 290.416 41.672 289.328 42.984C288.272 44.264 286.864 45.192 285.104 45.768ZM272.72 43.992H280.064C282.112 43.992 283.696 43.512 284.816 42.552C285.936 41.592 286.496 40.264 286.496 38.568C286.496 36.872 285.936 35.544 284.816 34.584C283.696 33.624 282.08 33.144 279.968 33.144H272.72V43.992ZM280.448 59.4C282.624 59.4 284.32 58.888 285.536 57.864C286.752 56.84 287.36 55.416 287.36 53.592C287.36 51.736 286.72 50.28 285.44 49.224C284.16 48.136 282.448 47.592 280.304 47.592H272.72V59.4H280.448ZM314.494 59.64V63H298.462V48.216L294.526 49.608V46.296L298.462 44.856V29.544H302.83V43.272L308.062 41.4V44.76L302.83 46.632V59.64H314.494ZM338.519 55.56H323.927L321.239 63H316.631L328.727 29.736H333.767L345.815 63H341.207L338.519 55.56ZM337.271 52.008L331.223 35.112L325.175 52.008H337.271ZM361.695 63.336C359.487 63.336 357.503 62.952 355.743 62.184C354.015 61.384 352.655 60.296 351.663 58.92C350.671 57.512 350.159 55.896 350.127 54.072H354.783C354.943 55.64 355.583 56.968 356.703 58.056C357.855 59.112 359.519 59.64 361.695 59.64C363.775 59.64 365.407 59.128 366.591 58.104C367.807 57.048 368.415 55.704 368.415 54.072C368.415 52.792 368.063 51.752 367.359 50.952C366.655 50.152 365.775 49.544 364.719 49.128C363.663 48.712 362.239 48.264 360.447 47.784C358.239 47.208 356.463 46.632 355.119 46.056C353.807 45.48 352.671 44.584 351.711 43.368C350.783 42.12 350.319 40.456 350.319 38.376C350.319 36.552 350.783 34.936 351.711 33.528C352.639 32.12 353.935 31.032 355.599 30.264C357.295 29.496 359.231 29.112 361.407 29.112C364.543 29.112 367.103 29.896 369.087 31.464C371.103 33.032 372.239 35.112 372.495 37.704H367.695C367.535 36.424 366.863 35.304 365.679 34.344C364.495 33.352 362.927 32.856 360.975 32.856C359.151 32.856 357.663 33.336 356.511 34.296C355.359 35.224 354.783 36.536 354.783 38.232C354.783 39.448 355.119 40.44 355.791 41.208C356.495 41.976 357.343 42.568 358.335 42.984C359.359 43.368 360.783 43.816 362.607 44.328C364.815 44.936 366.591 45.544 367.935 46.152C369.279 46.728 370.431 47.64 371.391 48.888C372.351 50.104 372.831 51.768 372.831 53.88C372.831 55.512 372.399 57.048 371.535 58.488C370.671 59.928 369.391 61.096 367.695 61.992C365.999 62.888 363.999 63.336 361.695 63.336ZM382.955 59.208H399.275V63H377.771V59.544L393.995 33.336H377.963V29.544H399.179V33L382.955 59.208ZM403.595 46.248C403.595 42.984 404.331 40.056 405.803 37.464C407.275 34.84 409.275 32.792 411.803 31.32C414.363 29.848 417.195 29.112 420.299 29.112C423.947 29.112 427.131 29.992 429.851 31.752C432.571 33.512 434.555 36.008 435.803 39.24H430.571C429.643 37.224 428.299 35.672 426.539 34.584C424.811 33.496 422.731 32.952 420.299 32.952C417.963 32.952 415.867 33.496 414.011 34.584C412.155 35.672 410.699 37.224 409.643 39.24C408.587 41.224 408.059 43.56 408.059 46.248C408.059 48.904 408.587 51.24 409.643 53.256C410.699 55.24 412.155 56.776 414.011 57.864C415.867 58.952 417.963 59.496 420.299 59.496C422.731 59.496 424.811 58.968 426.539 57.912C428.299 56.824 429.643 55.272 430.571 53.256H435.803C434.555 56.456 432.571 58.936 429.851 60.696C427.131 62.424 423.947 63.288 420.299 63.288C417.195 63.288 414.363 62.568 411.803 61.128C409.275 59.656 407.275 57.624 405.803 55.032C404.331 52.44 403.595 49.512 403.595 46.248ZM446.001 59.208H462.321V63H440.817V59.544L457.041 33.336H441.009V29.544H462.225V33L446.001 59.208ZM491.698 29.544L480.802 50.376V63H476.434V50.376L465.49 29.544H470.338L478.594 46.488L486.85 29.544H491.698ZM514.449 63L500.673 47.736V63H496.305V29.544H500.673V45.048L514.497 29.544H520.017L504.849 46.296L520.161 63H514.449Z"/>
</mask>
<path d="M116.568 31.608L115.648 33.3838L115.661 33.3904L115.674 33.3969L116.568 31.608ZM122.712 37.416L120.965 38.3892L120.969 38.3976L120.974 38.4059L122.712 37.416ZM122.712 55.272L120.974 54.2821L120.97 54.2894L122.712 55.272ZM116.568 61.032L117.454 62.8252L117.462 62.8209L116.568 61.032ZM96.696 63H94.696V65H96.696V63ZM96.696 29.544V27.544H94.696V29.544H96.696ZM117 55.992L118.414 57.4062L118.424 57.3963L117 55.992ZM116.952 36.6L115.518 37.9945L115.528 38.0044L116.952 36.6ZM101.064 33.096V31.096H99.064V33.096H101.064ZM101.064 59.4H99.064V61.4H101.064V59.4ZM107.112 31.544C110.509 31.544 113.332 32.184 115.648 33.3838L117.488 29.8322C114.492 28.28 111.011 27.544 107.112 27.544V31.544ZM115.674 33.3969C118.016 34.5683 119.76 36.2268 120.965 38.3892L124.459 36.4428C122.848 33.5492 120.496 31.3357 117.462 29.8191L115.674 33.3969ZM120.974 38.4059C122.214 40.5828 122.872 43.2054 122.872 46.344H126.872C126.872 42.6346 126.09 39.3052 124.45 36.4261L120.974 38.4059ZM122.872 46.344C122.872 49.4826 122.214 52.1052 120.974 54.2821L124.45 56.2619C126.09 53.3828 126.872 50.0534 126.872 46.344H122.872ZM120.97 54.2894C119.768 56.4207 118.023 58.0682 115.674 59.2431L117.462 62.8209C120.489 61.3078 122.84 59.1153 124.454 56.2546L120.97 54.2894ZM115.682 59.2388C113.358 60.3869 110.523 61 107.112 61V65C110.997 65 114.466 64.3011 117.454 62.8252L115.682 59.2388ZM107.112 61H96.696V65H107.112V61ZM98.696 63V29.544H94.696V63H98.696ZM96.696 31.544H107.112V27.544H96.696V31.544ZM107.112 61.4C111.774 61.4 115.652 60.1682 118.414 57.4062L115.586 54.5778C113.804 56.3598 111.09 57.4 107.112 57.4V61.4ZM118.424 57.3963C121.159 54.6224 122.408 50.8459 122.408 46.344H118.408C118.408 50.0981 117.385 52.7536 115.576 54.5877L118.424 57.3963ZM122.408 46.344C122.408 41.8061 121.141 37.9993 118.376 35.1956L115.528 38.0044C117.371 39.8727 118.408 42.5619 118.408 46.344H122.408ZM118.386 35.2056C115.629 32.3712 111.762 31.096 107.112 31.096V35.096C111.038 35.096 113.731 36.1568 115.518 37.9944L118.386 35.2056ZM107.112 31.096H101.064V35.096H107.112V31.096ZM99.064 33.096V59.4H103.064V33.096H99.064ZM101.064 61.4H107.112V57.4H101.064V61.4ZM150.41 55.56L152.291 54.8804L151.813 53.56H150.41V55.56ZM135.818 55.56V53.56H134.414L133.937 54.8804L135.818 55.56ZM133.13 63V65H134.533L135.011 63.6796L133.13 63ZM128.521 63L126.642 62.3165L125.666 65H128.521V63ZM140.618 29.736V27.736H139.217L138.738 29.0525L140.618 29.736ZM145.658 29.736L147.538 29.0549L147.06 27.736H145.658V29.736ZM157.706 63V65H160.557L159.586 62.3189L157.706 63ZM153.097 63L151.216 63.6796L151.694 65H153.097V63ZM149.162 52.008V54.008H152.002L151.045 51.334L149.162 52.008ZM143.114 35.112L144.996 34.438L143.113 29.1775L141.231 34.438L143.114 35.112ZM137.066 52.008L135.183 51.334L134.225 54.008H137.066V52.008ZM150.41 53.56H135.818V57.56H150.41V53.56ZM133.937 54.8804L131.249 62.3204L135.011 63.6796L137.699 56.2396L133.937 54.8804ZM133.13 61H128.521V65H133.13V61ZM130.401 63.6835L142.497 30.4195L138.738 29.0525L126.642 62.3165L130.401 63.6835ZM140.618 31.736H145.658V27.736H140.618V31.736ZM143.777 30.4171L155.825 63.6811L159.586 62.3189L147.538 29.0549L143.777 30.4171ZM157.706 61H153.097V65H157.706V61ZM154.979 62.3204L152.291 54.8804L148.528 56.2396L151.216 63.6796L154.979 62.3204ZM151.045 51.334L144.996 34.438L141.231 35.786L147.279 52.682L151.045 51.334ZM141.231 34.438L135.183 51.334L138.949 52.682L144.996 35.786L141.231 34.438ZM137.066 54.008H149.162V50.008H137.066V54.008ZM205.025 29.544L206.946 30.1007L207.687 27.544H205.025V29.544ZM195.329 63V65H196.832L197.25 63.5567L195.329 63ZM190.433 63L188.512 63.5549L188.929 65H190.433V63ZM182.657 36.072L184.579 35.5171L182.692 28.9839L180.741 35.4982L182.657 36.072ZM174.593 63L174.613 64.9999L176.086 64.9853L176.509 63.5738L174.593 63ZM169.745 63.048L167.819 63.5861L168.232 65.0631L169.765 65.0479L169.745 63.048ZM160.385 29.544V27.544H157.75L158.459 30.0821L160.385 29.544ZM165.041 29.544L166.978 29.0458L166.592 27.544H165.041V29.544ZM172.337 57.912L170.4 58.4102L172.241 65.566L174.261 58.4589L172.337 57.912ZM180.401 29.544V27.544H178.891L178.477 28.9971L180.401 29.544ZM185.297 29.544L187.227 29.0197L186.826 27.544H185.297V29.544ZM192.977 57.816L191.047 58.3403L193.02 65.6045L194.913 58.3188L192.977 57.816ZM200.321 29.544V27.544H198.774L198.385 29.0412L200.321 29.544ZM203.104 28.9873L193.408 62.4433L197.25 63.5567L206.946 30.1007L203.104 28.9873ZM195.329 61H190.433V65H195.329V61ZM192.355 62.4451L184.579 35.5171L180.736 36.6269L188.512 63.5549L192.355 62.4451ZM180.741 35.4982L172.677 62.4262L176.509 63.5738L184.573 36.6458L180.741 35.4982ZM174.573 61.0001L169.725 61.0481L169.765 65.0479L174.613 64.9999L174.573 61.0001ZM171.671 62.5099L162.311 29.0059L158.459 30.0821L167.819 63.5861L171.671 62.5099ZM160.385 31.544H165.041V27.544H160.385V31.544ZM163.104 30.0422L170.4 58.4102L174.274 57.4138L166.978 29.0458L163.104 30.0422ZM174.261 58.4589L182.325 30.0909L178.477 28.9971L170.413 57.3651L174.261 58.4589ZM180.401 31.544H185.297V27.544H180.401V31.544ZM183.367 30.0683L191.047 58.3403L194.907 57.2917L187.227 29.0197L183.367 30.0683ZM194.913 58.3188L202.257 30.0468L198.385 29.0412L191.041 57.3132L194.913 58.3188ZM200.321 31.544H205.025V27.544H200.321V31.544ZM214.173 29.544H216.173V27.544H214.173V29.544ZM214.173 63V65H216.173V63H214.173ZM209.805 63H207.805V65H209.805V63ZM209.805 29.544V27.544H207.805V29.544H209.805ZM212.173 29.544V63H216.173V29.544H212.173ZM214.173 61H209.805V65H214.173V61ZM211.805 63V29.544H207.805V63H211.805ZM209.805 31.544H214.173V27.544H209.805V31.544ZM241.49 31.608L240.57 33.3838L240.583 33.3904L240.595 33.3969L241.49 31.608ZM247.634 37.416L245.887 38.3892L245.891 38.3976L245.896 38.4059L247.634 37.416ZM247.634 55.272L245.896 54.2821L245.892 54.2894L247.634 55.272ZM241.49 61.032L242.376 62.8252L242.384 62.8209L241.49 61.032ZM221.618 63H219.618V65H221.618V63ZM221.618 29.544V27.544H219.618V29.544H221.618ZM241.922 55.992L243.336 57.4062L243.346 57.3963L241.922 55.992ZM241.874 36.6L240.44 37.9945L240.45 38.0044L241.874 36.6ZM225.986 33.096V31.096H223.986V33.096H225.986ZM225.986 59.4H223.986V61.4H225.986V59.4ZM232.034 31.544C235.431 31.544 238.254 32.184 240.57 33.3838L242.41 29.8322C239.414 28.28 235.933 27.544 232.034 27.544V31.544ZM240.595 33.3969C242.938 34.5683 244.682 36.2268 245.887 38.3892L249.381 36.4428C247.77 33.5492 245.417 31.3357 242.384 29.8191L240.595 33.3969ZM245.896 38.4059C247.136 40.5828 247.794 43.2054 247.794 46.344H251.794C251.794 42.6346 251.012 39.3052 249.372 36.4261L245.896 38.4059ZM247.794 46.344C247.794 49.4826 247.136 52.1052 245.896 54.2821L249.372 56.2619C251.012 53.3828 251.794 50.0534 251.794 46.344H247.794ZM245.892 54.2894C244.69 56.4207 242.945 58.0682 240.595 59.2431L242.384 62.8209C245.411 61.3078 247.762 59.1153 249.376 56.2546L245.892 54.2894ZM240.604 59.2388C238.28 60.3869 235.444 61 232.034 61V65C235.919 65 239.388 64.3011 242.376 62.8252L240.604 59.2388ZM232.034 61H221.618V65H232.034V61ZM223.618 63V29.544H219.618V63H223.618ZM221.618 31.544H232.034V27.544H221.618V31.544ZM232.034 61.4C236.696 61.4 240.574 60.1682 243.336 57.4062L240.508 54.5778C238.726 56.3598 236.012 57.4 232.034 57.4V61.4ZM243.346 57.3963C246.081 54.6224 247.33 50.8459 247.33 46.344H243.33C243.33 50.0981 242.306 52.7536 240.498 54.5877L243.346 57.3963ZM247.33 46.344C247.33 41.8061 246.063 37.9993 243.298 35.1956L240.45 38.0044C242.293 39.8727 243.33 42.5619 243.33 46.344H247.33ZM243.308 35.2056C240.551 32.3712 236.684 31.096 232.034 31.096V35.096C235.96 35.096 238.653 36.1568 240.44 37.9944L243.308 35.2056ZM232.034 31.096H225.986V35.096H232.034V31.096ZM223.986 33.096V59.4H227.986V33.096H223.986ZM225.986 61.4H232.034V57.4H225.986V61.4ZM285.104 45.768L284.482 43.8672L284.792 47.7435L285.104 45.768ZM288.416 47.256L287.161 48.8128L287.173 48.8225L287.185 48.832L288.416 47.256ZM290.816 50.232L289.018 51.1069L289.027 51.1264L289.037 51.1456L290.816 50.232ZM290.432 58.632L292.115 59.7135L292.12 59.7046L292.126 59.6955L290.432 58.632ZM286.64 61.848L287.492 63.6576L287.499 63.6541L287.507 63.6505L286.64 61.848ZM268.352 63H266.352V65H268.352V63ZM268.352 29.544V27.544H266.352V29.544H268.352ZM286.16 30.696L285.295 32.499L285.31 32.5061L285.324 32.513L286.16 30.696ZM289.76 33.72L288.064 34.78V34.78L289.76 33.72ZM289.328 42.984L287.789 41.7073L287.786 41.7112L289.328 42.984ZM272.72 43.992H270.72V45.992H272.72V43.992ZM284.816 34.584L283.515 36.1025V36.1025L284.816 34.584ZM272.72 33.144V31.144H270.72V33.144H272.72ZM285.536 57.864L286.825 59.3938L285.536 57.864ZM285.44 49.224L284.145 50.7479L284.156 50.7574L284.167 50.7667L285.44 49.224ZM272.72 47.592V45.592H270.72V47.592H272.72ZM272.72 59.4H270.72V61.4H272.72V59.4ZM284.792 47.7435C285.65 47.879 286.431 48.2245 287.161 48.8128L289.672 45.6992C288.417 44.6875 286.99 44.041 285.416 43.7925L284.792 47.7435ZM287.185 48.832C287.966 49.442 288.573 50.193 289.018 51.1069L292.615 49.3571C291.907 47.903 290.915 46.67 289.648 45.68L287.185 48.832ZM289.037 51.1456C289.498 52.0441 289.728 52.9945 289.728 54.024H293.728C293.728 52.3655 293.35 50.7879 292.595 49.3184L289.037 51.1456ZM289.728 54.024C289.728 55.3611 289.393 56.5255 288.738 57.5685L292.126 59.6955C293.199 57.9865 293.728 56.0789 293.728 54.024H289.728ZM288.75 57.5505C288.115 58.5375 287.157 59.3804 285.774 60.0455L287.507 63.6505C289.451 62.7156 291.021 61.4145 292.115 59.7135L288.75 57.5505ZM285.789 60.0384C284.479 60.6545 282.847 61 280.832 61V65C283.297 65 285.537 64.5775 287.492 63.6576L285.789 60.0384ZM280.832 61H268.352V65H280.832V61ZM270.352 63V29.544H266.352V63H270.352ZM268.352 31.544H280.352V27.544H268.352V31.544ZM280.352 31.544C282.406 31.544 284.03 31.8917 285.295 32.499L287.026 28.893C285.091 27.9643 282.843 27.544 280.352 27.544V31.544ZM285.324 32.513C286.63 33.1137 287.504 33.883 288.064 34.78L291.456 32.66C290.417 30.997 288.89 29.7503 286.996 28.879L285.324 32.513ZM288.064 34.78C288.653 35.7228 288.96 36.7913 288.96 38.04H292.96C292.96 36.0887 292.467 34.2772 291.456 32.66L288.064 34.78ZM288.96 38.04C288.96 39.6382 288.532 40.8116 287.789 41.7073L290.868 44.2607C292.301 42.5324 292.96 40.4098 292.96 38.04H288.96ZM287.786 41.7112C286.998 42.6658 285.925 43.395 284.482 43.8672L285.726 47.6688C287.803 46.989 289.546 45.8622 290.871 44.2568L287.786 41.7112ZM272.72 45.992H280.064V41.992H272.72V45.992ZM280.064 45.992C282.405 45.992 284.516 45.4433 286.118 44.0705L283.515 41.0335C282.876 41.5807 281.819 41.992 280.064 41.992V45.992ZM286.118 44.0705C287.75 42.6715 288.496 40.7506 288.496 38.568H284.496C284.496 39.7774 284.122 40.5125 283.515 41.0335L286.118 44.0705ZM288.496 38.568C288.496 36.3854 287.75 34.4645 286.118 33.0655L283.515 36.1025C284.122 36.6235 284.496 37.3586 284.496 38.568H288.496ZM286.118 33.0655C284.506 31.6843 282.355 31.144 279.968 31.144V35.144C281.806 35.144 282.886 35.5637 283.515 36.1025L286.118 33.0655ZM279.968 31.144H272.72V35.144H279.968V31.144ZM270.72 33.144V43.992H274.72V33.144H270.72ZM280.448 61.4C282.922 61.4 285.134 60.8171 286.825 59.3938L284.248 56.3342C283.506 56.9589 282.326 57.4 280.448 57.4V61.4ZM286.825 59.3938C288.561 57.9314 289.36 55.9089 289.36 53.592H285.36C285.36 54.9231 284.943 55.7486 284.248 56.3342L286.825 59.3938ZM289.36 53.592C289.36 51.2189 288.512 49.1652 286.713 47.6813L284.167 50.7667C284.929 51.3947 285.36 52.2531 285.36 53.592H289.36ZM286.736 47.7001C285.003 46.2277 282.789 45.592 280.304 45.592V49.592C282.108 49.592 283.317 50.0443 284.145 50.7479L286.736 47.7001ZM280.304 45.592H272.72V49.592H280.304V45.592ZM270.72 47.592V59.4H274.72V47.592H270.72ZM272.72 61.4H280.448V57.4H272.72V61.4ZM314.494 59.64H316.494V57.64H314.494V59.64ZM314.494 63V65H316.494V63H314.494ZM298.462 63H296.462V65H298.462V63ZM298.462 48.216H300.462V45.3873L297.795 46.3304L298.462 48.216ZM294.526 49.608H292.526V52.4367L295.193 51.4936L294.526 49.608ZM294.526 46.296L293.839 44.4178L292.526 44.8981V46.296H294.526ZM298.462 44.856L299.149 46.7342L300.462 46.2539V44.856H298.462ZM298.462 29.544V27.544H296.462V29.544H298.462ZM302.83 29.544H304.83V27.544H302.83V29.544ZM302.83 43.272H300.83V46.1118L303.504 45.1551L302.83 43.272ZM308.062 41.4H310.062V38.5602L307.388 39.5169L308.062 41.4ZM308.062 44.76L308.736 46.6431L310.062 46.1686V44.76H308.062ZM302.83 46.632L302.156 44.7489L300.83 45.2234V46.632H302.83ZM302.83 59.64H300.83V61.64H302.83V59.64ZM312.494 59.64V63H316.494V59.64H312.494ZM314.494 61H298.462V65H314.494V61ZM300.462 63V48.216H296.462V63H300.462ZM297.795 46.3304L293.859 47.7224L295.193 51.4936L299.129 50.1016L297.795 46.3304ZM296.526 49.608V46.296H292.526V49.608H296.526ZM295.213 48.1742L299.149 46.7342L297.775 42.9778L293.839 44.4178L295.213 48.1742ZM300.462 44.856V29.544H296.462V44.856H300.462ZM298.462 31.544H302.83V27.544H298.462V31.544ZM300.83 29.544V43.272H304.83V29.544H300.83ZM303.504 45.1551L308.736 43.2831L307.388 39.5169L302.156 41.3889L303.504 45.1551ZM306.062 41.4V44.76H310.062V41.4H306.062ZM307.388 42.8769L302.156 44.7489L303.504 48.5151L308.736 46.6431L307.388 42.8769ZM300.83 46.632V59.64H304.83V46.632H300.83ZM302.83 61.64H314.494V57.64H302.83V61.64ZM338.519 55.56L340.4 54.8804L339.923 53.56H338.519V55.56ZM323.927 55.56V53.56H322.523L322.046 54.8804L323.927 55.56ZM321.239 63V65H322.643L323.12 63.6796L321.239 63ZM316.631 63L314.751 62.3165L313.775 65H316.631V63ZM328.727 29.736V27.736H327.326L326.847 29.0525L328.727 29.736ZM333.767 29.736L335.647 29.0549L335.17 27.736H333.767V29.736ZM345.815 63V65H348.666L347.695 62.3189L345.815 63ZM341.207 63L339.326 63.6796L339.803 65H341.207V63ZM337.271 52.008V54.008H340.111L339.154 51.334L337.271 52.008ZM331.223 35.112L333.106 34.438L331.223 29.1775L329.34 34.438L331.223 35.112ZM325.175 52.008L323.292 51.334L322.335 54.008H325.175V52.008ZM338.519 53.56H323.927V57.56H338.519V53.56ZM322.046 54.8804L319.358 62.3204L323.12 63.6796L325.808 56.2396L322.046 54.8804ZM321.239 61H316.631V65H321.239V61ZM318.51 63.6835L330.606 30.4195L326.847 29.0525L314.751 62.3165L318.51 63.6835ZM328.727 31.736H333.767V27.736H328.727V31.736ZM331.886 30.4171L343.934 63.6811L347.695 62.3189L335.647 29.0549L331.886 30.4171ZM345.815 61H341.207V65H345.815V61ZM343.088 62.3204L340.4 54.8804L336.638 56.2396L339.326 63.6796L343.088 62.3204ZM339.154 51.334L333.106 34.438L329.34 35.786L335.388 52.682L339.154 51.334ZM329.34 34.438L323.292 51.334L327.058 52.682L333.106 35.786L329.34 34.438ZM325.175 54.008H337.271V50.008H325.175V54.008ZM355.743 62.184L354.902 63.9989L354.922 64.0082L354.943 64.0171L355.743 62.184ZM351.663 58.92L350.028 60.0719L350.034 60.0808L350.04 60.0896L351.663 58.92ZM350.127 54.072V52.072H348.091L348.127 54.1071L350.127 54.072ZM354.783 54.072L356.772 53.869L356.589 52.072H354.783V54.072ZM356.703 58.056L355.309 59.4906L355.33 59.5107L355.351 59.5303L356.703 58.056ZM366.591 58.104L367.899 59.6167L367.902 59.6141L366.591 58.104ZM367.359 50.952L365.857 52.2733L367.359 50.952ZM364.719 49.128L363.986 50.9888L364.719 49.128ZM360.447 47.784L360.964 45.8521L360.951 45.8488L360.447 47.784ZM355.119 46.056L354.315 47.8873L354.323 47.8908L354.331 47.8943L355.119 46.056ZM351.711 43.368L350.106 44.5614L350.123 44.5846L350.141 44.6073L351.711 43.368ZM351.711 33.528L353.381 34.6286L351.711 33.528ZM355.599 30.264L354.774 28.4421L354.767 28.4451L354.76 28.4481L355.599 30.264ZM369.087 31.464L367.847 33.0331L367.853 33.0379L367.859 33.0427L369.087 31.464ZM372.495 37.704V39.704H374.702L374.485 37.5074L372.495 37.704ZM367.695 37.704L365.71 37.9521L365.929 39.704H367.695V37.704ZM365.679 34.344L364.394 35.877L364.407 35.8874L364.419 35.8975L365.679 34.344ZM356.511 34.296L357.765 35.8535L357.778 35.8431L357.791 35.8324L356.511 34.296ZM355.791 41.208L354.285 42.525L354.301 42.5424L354.316 42.5594L355.791 41.208ZM358.335 42.984L357.561 44.8284L357.596 44.8432L357.632 44.8567L358.335 42.984ZM362.607 44.328L362.066 46.2536L362.076 46.2562L362.607 44.328ZM367.935 46.152L367.11 47.9742L367.128 47.9824L367.147 47.9903L367.935 46.152ZM371.391 48.888L369.805 50.1074L369.813 50.1174L369.821 50.1273L371.391 48.888ZM371.535 58.488L373.25 59.517L371.535 58.488ZM367.695 61.992L366.76 60.2236L367.695 61.992ZM361.695 61.336C359.721 61.336 358.015 60.9935 356.543 60.3509L354.943 64.0171C356.99 64.9105 359.252 65.336 361.695 65.336V61.336ZM356.583 60.3691C355.128 59.6954 354.052 58.8148 353.285 57.7504L350.04 60.0896C351.257 61.7772 352.902 63.0726 354.902 63.9989L356.583 60.3691ZM353.298 57.7681C352.55 56.7073 352.152 55.4855 352.126 54.0369L348.127 54.1071C348.166 56.3065 348.791 58.3167 350.028 60.0719L353.298 57.7681ZM350.127 56.072H354.783V52.072H350.127V56.072ZM352.793 54.275C353 56.306 353.848 58.0715 355.309 59.4906L358.096 56.6214C357.317 55.8645 356.885 54.974 356.772 53.869L352.793 54.275ZM355.351 59.5303C356.995 61.0374 359.215 61.64 361.695 61.64V57.64C359.822 57.64 358.714 57.1866 358.054 56.5817L355.351 59.5303ZM361.695 61.64C364.095 61.64 366.246 61.0459 367.899 59.6167L365.282 56.5913C364.567 57.2101 363.454 57.64 361.695 57.64V61.64ZM367.902 59.6141C369.562 58.1724 370.415 56.2745 370.415 54.072H366.415C366.415 55.1335 366.051 55.9236 365.279 56.5939L367.902 59.6141ZM370.415 54.072C370.415 52.4083 369.947 50.8663 368.86 49.6307L365.857 52.2733C366.178 52.6377 366.415 53.1757 366.415 54.072H370.415ZM368.86 49.6307C367.933 48.577 366.783 47.7917 365.452 47.2672L363.986 50.9888C364.766 51.2962 365.376 51.727 365.857 52.2733L368.86 49.6307ZM365.452 47.2672C364.295 46.8116 362.79 46.3411 360.964 45.8521L359.929 49.7159C361.688 50.1869 363.03 50.6124 363.986 50.9888L365.452 47.2672ZM360.951 45.8488C358.793 45.2857 357.123 44.739 355.906 44.2177L354.331 47.8943C355.802 48.525 357.684 49.1303 359.942 49.7192L360.951 45.8488ZM355.923 44.2247C354.935 43.7909 354.054 43.1091 353.28 42.1287L350.141 44.6073C351.287 46.0589 352.679 47.1691 354.315 47.8873L355.923 44.2247ZM353.316 42.1746C352.718 41.3714 352.319 40.1698 352.319 38.376H348.319C348.319 40.7422 348.847 42.8686 350.106 44.5614L353.316 42.1746ZM352.319 38.376C352.319 36.9099 352.686 35.6831 353.381 34.6286L350.041 32.4274C348.88 34.1889 348.319 36.1941 348.319 38.376H352.319ZM353.381 34.6286C354.086 33.5588 355.081 32.7057 356.437 32.0799L354.76 28.4481C352.788 29.3582 351.192 30.6812 350.041 32.4274L353.381 34.6286ZM356.424 32.0859C357.82 31.4534 359.468 31.112 361.407 31.112V27.112C358.994 27.112 356.769 27.5385 354.774 28.4421L356.424 32.0859ZM361.407 31.112C364.203 31.112 366.294 31.8058 367.847 33.0331L370.327 29.8949C367.912 27.9862 364.882 27.112 361.407 27.112V31.112ZM367.859 33.0427C369.432 34.2665 370.301 35.8421 370.504 37.9006L374.485 37.5074C374.176 34.3819 372.773 31.7975 370.315 29.8853L367.859 33.0427ZM372.495 35.704H367.695V39.704H372.495V35.704ZM369.679 37.4559C369.444 35.572 368.445 34.0126 366.938 32.7905L364.419 35.8975C365.28 36.5954 365.626 37.276 365.71 37.9521L369.679 37.4559ZM366.963 32.811C365.332 31.4447 363.269 30.856 360.975 30.856V34.856C362.584 34.856 363.657 35.2593 364.394 35.877L366.963 32.811ZM360.975 30.856C358.788 30.856 356.815 31.439 355.23 32.7596L357.791 35.8324C358.51 35.233 359.513 34.856 360.975 34.856V30.856ZM355.256 32.7385C353.56 34.1046 352.783 36.0306 352.783 38.232H356.783C356.783 37.0414 357.157 36.3434 357.765 35.8535L355.256 32.7385ZM352.783 38.232C352.783 39.8348 353.236 41.3251 354.285 42.525L357.296 39.891C357.002 39.5549 356.783 39.0612 356.783 38.232H352.783ZM354.316 42.5594C355.222 43.5475 356.312 44.3044 357.561 44.8284L359.108 41.1396C358.374 40.8316 357.767 40.4045 357.265 39.8566L354.316 42.5594ZM357.632 44.8567C358.734 45.2698 360.221 45.7356 362.066 46.2536L363.147 42.4024C361.345 41.8964 359.983 41.4662 359.037 41.1113L357.632 44.8567ZM362.076 46.2562C364.232 46.8499 365.898 47.4258 367.11 47.9742L368.759 44.3298C367.283 43.6622 365.398 43.0221 363.138 42.3998L362.076 46.2562ZM367.147 47.9903C368.152 48.4213 369.037 49.109 369.805 50.1074L372.976 47.6686C371.824 46.171 370.405 45.0347 368.722 44.3137L367.147 47.9903ZM369.821 50.1273C370.416 50.8813 370.831 52.0558 370.831 53.88H374.831C374.831 51.4802 374.285 49.3267 372.96 47.6487L369.821 50.1273ZM370.831 53.88C370.831 55.1386 370.503 56.3204 369.82 57.459L373.25 59.517C374.294 57.7756 374.831 55.8854 374.831 53.88H370.831ZM369.82 57.459C369.169 58.5434 368.18 59.4734 366.76 60.2236L368.629 63.7604C370.601 62.7186 372.172 61.3126 373.25 59.517L369.82 57.459ZM366.76 60.2236C365.405 60.9398 363.738 61.336 361.695 61.336V65.336C364.259 65.336 366.592 64.8362 368.629 63.7604L366.76 60.2236ZM382.954 59.208L381.254 58.1553L379.364 61.208H382.954V59.208ZM399.275 59.208H401.275V57.208H399.275V59.208ZM399.275 63V65H401.275V63H399.275ZM377.771 63H375.771V65H377.771V63ZM377.771 59.544L376.07 58.4913L375.771 58.975V59.544H377.771ZM393.995 33.336L395.695 34.3887L397.585 31.336H393.995V33.336ZM377.962 33.336H375.962V35.336H377.962V33.336ZM377.962 29.544V27.544H375.962V29.544H377.962ZM399.178 29.544H401.178V27.544H399.178V29.544ZM399.178 33L400.879 34.0527L401.178 33.569V33H399.178ZM382.954 61.208H399.275V57.208H382.954V61.208ZM397.275 59.208V63H401.275V59.208H397.275ZM399.275 61H377.771V65H399.275V61ZM379.771 63V59.544H375.771V63H379.771ZM379.471 60.5967L395.695 34.3887L392.294 32.2833L376.07 58.4913L379.471 60.5967ZM393.995 31.336H377.962V35.336H393.995V31.336ZM379.962 33.336V29.544H375.962V33.336H379.962ZM377.962 31.544H399.178V27.544H377.962V31.544ZM397.178 29.544V33H401.178V29.544H397.178ZM397.478 31.9473L381.254 58.1553L384.655 60.2607L400.879 34.0527L397.478 31.9473ZM405.803 37.464L407.542 38.4517L407.548 38.4425L405.803 37.464ZM411.803 31.32L410.806 29.5862L410.797 29.5916L411.803 31.32ZM429.851 31.752L430.938 30.0729L429.851 31.752ZM435.803 39.24V41.24H438.719L437.669 38.5196L435.803 39.24ZM430.571 39.24L428.754 40.0763L429.29 41.24H430.571V39.24ZM426.539 34.584L425.474 36.2765L425.481 36.2809L425.488 36.2852L426.539 34.584ZM414.011 34.584L415.023 36.3094L415.023 36.3094L414.011 34.584ZM409.643 39.24L411.409 40.1797L411.415 40.168L409.643 39.24ZM409.643 53.256L407.872 54.184L407.878 54.1957L409.643 53.256ZM414.011 57.864L415.023 56.1386H415.023L414.011 57.864ZM426.539 57.912L427.582 59.6186L427.591 59.6132L426.539 57.912ZM430.571 53.256V51.256H429.29L428.754 52.4197L430.571 53.256ZM435.803 53.256L437.667 53.9827L438.73 51.256H435.803V53.256ZM429.851 60.696L430.924 62.3841L430.931 62.3797L430.938 62.3751L429.851 60.696ZM411.803 61.128L410.797 62.8563L410.81 62.8638L410.823 62.8712L411.803 61.128ZM405.803 55.032L407.542 54.0443L405.803 55.032ZM405.595 46.248C405.595 43.2965 406.257 40.7145 407.542 38.4517L404.064 36.4763C402.405 39.3975 401.595 42.6715 401.595 46.248H405.595ZM407.548 38.4425C408.85 36.1205 410.599 34.3354 412.81 33.0483L410.797 29.5916C407.951 31.2486 405.7 33.5595 404.059 36.4855L407.548 38.4425ZM412.8 33.0538C415.041 31.7653 417.527 31.112 420.299 31.112V27.112C416.864 27.112 413.685 27.9307 410.806 29.5862L412.8 33.0538ZM420.299 31.112C423.612 31.112 426.408 31.9062 428.765 33.4311L430.938 30.0729C427.854 28.0778 424.283 27.112 420.299 27.112V31.112ZM428.765 33.4311C431.105 34.9455 432.83 37.0933 433.938 39.9604L437.669 38.5196C436.28 34.9227 434.037 32.0785 430.938 30.0729L428.765 33.4311ZM435.803 37.24H430.571V41.24H435.803V37.24ZM432.388 38.4037C431.308 36.0576 429.71 34.1928 427.591 32.8828L425.488 36.2852C426.888 37.1512 427.978 38.3904 428.754 40.0763L432.388 38.4037ZM427.605 32.8915C425.501 31.567 423.035 30.952 420.299 30.952V34.952C422.427 34.952 424.121 35.425 425.474 36.2765L427.605 32.8915ZM420.299 30.952C417.639 30.952 415.189 31.5755 413 32.8586L415.023 36.3094C416.546 35.4165 418.287 34.952 420.299 34.952V30.952ZM413 32.8586C410.802 34.1471 409.091 35.9843 407.872 38.312L411.415 40.168C412.308 38.4637 413.509 37.1969 415.023 36.3094L413 32.8586ZM407.878 38.3003C406.64 40.6252 406.059 43.2962 406.059 46.248H410.059C410.059 43.8238 410.534 41.8228 411.409 40.1797L407.878 38.3003ZM406.059 46.248C406.059 49.1732 406.642 51.8373 407.872 54.184L411.415 52.328C410.532 50.6427 410.059 48.6348 410.059 46.248H406.059ZM407.878 54.1957C409.099 56.491 410.81 58.3057 413 59.5894L415.023 56.1386C413.5 55.2463 412.299 53.989 411.409 52.3163L407.878 54.1957ZM413 59.5894C415.189 60.8725 417.639 61.496 420.299 61.496V57.496C418.287 57.496 416.546 57.0315 415.023 56.1386L413 59.5894ZM420.299 61.496C423.025 61.496 425.482 60.9019 427.582 59.6186L425.496 56.2054C424.14 57.0341 422.438 57.496 420.299 57.496V61.496ZM427.591 59.6132C429.71 58.3032 431.308 56.4384 432.388 54.0923L428.754 52.4197C427.978 54.1056 426.888 55.3448 425.488 56.2108L427.591 59.6132ZM430.571 55.256H435.803V51.256H430.571V55.256ZM433.94 52.5293C432.835 55.3631 431.11 57.4991 428.765 59.0169L430.938 62.3751C434.032 60.3729 436.276 57.5489 437.667 53.9827L433.94 52.5293ZM428.779 59.0079C426.42 60.5062 423.619 61.288 420.299 61.288V65.288C424.276 65.288 427.842 64.3418 430.924 62.3841L428.779 59.0079ZM420.299 61.288C417.519 61.288 415.027 60.6468 412.784 59.3848L410.823 62.8712C413.699 64.4892 416.872 65.288 420.299 65.288V61.288ZM412.81 59.3997C410.593 58.109 408.843 56.3352 407.542 54.0443L404.064 56.0196C405.707 58.9128 407.957 61.203 410.797 62.8563L412.81 59.3997ZM407.542 54.0443C406.257 51.7815 405.595 49.1995 405.595 46.248H401.595C401.595 49.8245 402.405 53.0985 404.064 56.0196L407.542 54.0443ZM446.001 59.208L444.301 58.1553L442.411 61.208H446.001V59.208ZM462.321 59.208H464.321V57.208H462.321V59.208ZM462.321 63V65H464.321V63H462.321ZM440.817 63H438.817V65H440.817V63ZM440.817 59.544L439.117 58.4913L438.817 58.975V59.544H440.817ZM457.041 33.336L458.742 34.3887L460.632 31.336H457.041V33.336ZM441.009 33.336H439.009V35.336H441.009V33.336ZM441.009 29.544V27.544H439.009V29.544H441.009ZM462.225 29.544H464.225V27.544H462.225V29.544ZM462.225 33L463.926 34.0527L464.225 33.569V33H462.225ZM446.001 61.208H462.321V57.208H446.001V61.208ZM460.321 59.208V63H464.321V59.208H460.321ZM462.321 61H440.817V65H462.321V61ZM442.817 63V59.544H438.817V63H442.817ZM442.518 60.5967L458.742 34.3887L455.341 32.2833L439.117 58.4913L442.518 60.5967ZM457.041 31.336H441.009V35.336H457.041V31.336ZM443.009 33.336V29.544H439.009V33.336H443.009ZM441.009 31.544H462.225V27.544H441.009V31.544ZM460.225 29.544V33H464.225V29.544H460.225ZM460.525 31.9473L444.301 58.1553L447.702 60.2607L463.926 34.0527L460.525 31.9473ZM491.698 29.544L493.47 30.4709L495.001 27.544H491.698V29.544ZM480.802 50.376L479.03 49.4491L478.802 49.8845V50.376H480.802ZM480.802 63V65H482.802V63H480.802ZM476.434 63H474.434V65H476.434V63ZM476.434 50.376H478.434V49.8826L478.205 49.4459L476.434 50.376ZM465.49 29.544V27.544H462.18L463.72 30.4741L465.49 29.544ZM470.338 29.544L472.136 28.668L471.588 27.544H470.338V29.544ZM478.594 46.488L476.796 47.364L478.594 51.054L480.392 47.364L478.594 46.488ZM486.85 29.544V27.544H485.6L485.052 28.668L486.85 29.544ZM489.926 28.6171L479.03 49.4491L482.574 51.3029L493.47 30.4709L489.926 28.6171ZM478.802 50.376V63H482.802V50.376H478.802ZM480.802 61H476.434V65H480.802V61ZM478.434 63V50.376H474.434V63H478.434ZM478.205 49.4459L467.261 28.6139L463.72 30.4741L474.664 51.3061L478.205 49.4459ZM465.49 31.544H470.338V27.544H465.49V31.544ZM468.54 30.42L476.796 47.364L480.392 45.612L472.136 28.668L468.54 30.42ZM480.392 47.364L488.648 30.42L485.052 28.668L476.796 45.612L480.392 47.364ZM486.85 31.544H491.698V27.544H486.85V31.544ZM514.449 63L512.965 64.34L513.56 65H514.449V63ZM500.673 47.736L502.158 46.396L498.673 42.5349V47.736H500.673ZM500.673 63V65H502.673V63H500.673ZM496.305 63H494.305V65H496.305V63ZM496.305 29.544V27.544H494.305V29.544H496.305ZM500.673 29.544H502.673V27.544H500.673V29.544ZM500.673 45.048H498.673V50.2963L502.166 46.379L500.673 45.048ZM514.497 29.544V27.544H513.601L513.005 28.213L514.497 29.544ZM520.017 29.544L521.5 30.8864L524.526 27.544H520.017V29.544ZM504.849 46.296L503.367 44.9536L502.144 46.3043L503.375 47.6474L504.849 46.296ZM520.161 63V65H524.708L521.636 61.6486L520.161 63ZM515.934 61.66L502.158 46.396L499.189 49.076L512.965 64.34L515.934 61.66ZM498.673 47.736V63H502.673V47.736H498.673ZM500.673 61H496.305V65H500.673V61ZM498.305 63V29.544H494.305V63H498.305ZM496.305 31.544H500.673V27.544H496.305V31.544ZM498.673 29.544V45.048H502.673V29.544H498.673ZM502.166 46.379L515.99 30.875L513.005 28.213L499.181 43.717L502.166 46.379ZM514.497 31.544H520.017V27.544H514.497V31.544ZM518.535 28.2016L503.367 44.9536L506.332 47.6384L521.5 30.8864L518.535 28.2016ZM503.375 47.6474L518.687 64.3514L521.636 61.6486L506.324 44.9445L503.375 47.6474ZM520.161 61H514.449V65H520.161V61Z" fill="white" mask="url(#path-2-outside-1_1_3)"/>
</g>
<defs>
<clipPath id="clip0_1_3">
<rect width="614" height="91" fill="white"/>
</clipPath>
</defs>
</svg>
